<?xml version="1.0" encoding="utf-8"?>
<!-- Generator: Adobe Illustrator 27.1.1, SVG Export Plug-In . SVG Version: 6.00 Build 0)  -->
<svg version="1.1" id="Layer_1" xmlns="http://www.w3.org/2000/svg" xmlns:xlink="http://www.w3.org/1999/xlink" x="0px" y="0px"
	 viewBox="0 0 1600 1200" style="enable-background:new 0 0 1600 1200;" xml:space="preserve">
<style type="text/css">
	.st0{fill:#FFFFFF;}
</style>
<rect width="1601.67" height="1201"/>
<g>
	<g>
		<path class="st0" d="M533.29,762.27l-42.02,104.79h-8.84l-42.02-104.79h9.35l37.05,93.02l37.05-93.02H533.29z"/>
		<path class="st0" d="M609.94,762.27v8.26h-58.53v35.15h45.23v8.18h-45.23v45.01h58.53v8.18h-67.15V762.27H609.94z"/>
		<path class="st0" d="M704.79,762.27v104.79h-5.92l-68.32-89.59v89.59h-8.62V762.27h5.92l68.25,89.66v-89.66H704.79z"/>
		<path class="st0" d="M807.67,762.27v8.26h-41.07v96.53h-8.7v-96.53h-41.07v-8.26H807.67z"/>
		<path class="st0" d="M895.65,762.27v65.55c0,21.19-16.44,39.24-38.66,39.24c-21.19,0-38.58-17.17-38.58-39.24v-65.55h8.62v65.33
			c0,16.22,12.42,31.2,29.96,31.2c16.66,0,29.89-13.96,29.89-31.2v-65.33H895.65z"/>
		<path class="st0" d="M979.75,867.05l-28.06-48.3h-30.98v48.3h-8.62V762.27h43.33c15.27,0,28.43,12.06,28.43,28.28
			c0,13.3-8.91,24.41-22.73,27.55l28.5,48.96H979.75z M920.71,810.64h34.05c10.45,0,20.53-8.33,20.53-20.09
			c0-10.6-9.06-19.95-20.61-19.95h-33.98V810.64z"/>
		<path class="st0" d="M1066.34,762.27v8.26h-58.53v35.15h45.23v8.18h-45.23v45.01h58.53v8.18h-67.15V762.27H1066.34z"/>
		<path class="st0" d="M1080.23,842.5c13.01,11.69,27.04,16.3,39.02,16.37c17.98,0,31.71-9.5,31.71-22.14
			c0-29.45-74.31-7.09-74.31-45.09c0-19.73,16.44-29.37,36.9-29.52c12.64,0,26.6,4.02,38.44,12.57l-5.04,6.43
			c-10.01-7.31-22.36-10.89-33.25-10.89c-16,0-28.43,6.72-28.43,21.04c0,29.59,74.31,6.58,74.31,45.45
			c0,17.54-17.61,30.4-40.34,30.33c-13.88-0.07-29.67-5.41-44.5-18.41L1080.23,842.5z"/>
	</g>
	<g>
		<g>
			<g>
				<path class="st0" d="M973.91,482.86c-15.02-16.5-30.99-26.49-47.94-29.98c19.22-16.19,28.83-33.69,28.83-52.46
					c0-18.63-6.62-34.52-19.87-47.7c-13.25-13.2-29.19-19.77-47.82-19.77h-64.51V461.2c0.6,0.22,1.17,0.48,1.75,0.74
					c6.24,2.85,12.03,6.81,17.14,11.83l0.26,0.26l1.29,1.43v-7.36h42.49c28.45,0,52.77,10.07,72.9,30.22
					c20.16,20.13,30.22,44.45,30.22,72.9c0,28.48-10.07,53.08-30.22,73.83c-18.31,19.08-40.12,29.46-65.42,31.13v-0.24h-49.97
					v-28.86c-6.17,5.4-12.12,9.73-18.15,13.27c-0.77,0.45-1.53,0.88-2.3,1.31v34.72h70.41v-0.22c31.35-0.45,58.31-12.36,80.88-35.67
					c24.22-25.13,36.34-54.9,36.34-89.28C1010.25,536.7,998.13,507.24,973.91,482.86z M892.36,446.3h-49.3v-92.91h44.06
					c13.63,0,25.06,4.42,34.31,13.29c9.23,8.85,13.84,20.11,13.84,33.74s-4.61,24.67-13.84,33.16
					C913.4,440.99,903.71,445.25,892.36,446.3z"/>
			</g>
		</g>
		<g>
			<g>
				<path class="st0" d="M774.25,461.82c0.5-0.22,1-0.43,1.51-0.62V332.95h-64.53c-18.63,0-34.55,6.58-47.82,19.77
					c-13.25,13.17-19.87,29.07-19.87,47.7c0,18.77,9.61,36.27,28.86,52.46c-16.98,3.49-32.95,13.48-47.94,29.98
					c-24.22,24.39-36.34,53.84-36.34,88.37c0,34.38,12.12,64.15,36.34,89.28c22.57,23.31,49.52,35.22,80.86,35.67v0.22h70.44v-24.48
					c-6.89-0.69-13.8-2.27-20.44-4.71v8.75h-49.99v0.24c-25.27-1.67-47.08-12.05-65.42-31.13c-20.13-20.75-30.2-45.36-30.2-73.83
					c0-28.45,10.07-52.77,30.2-72.9c20.16-20.16,44.45-30.22,72.92-30.22h42.49v7.22C760.55,469.68,767.05,465.07,774.25,461.82z
					 M706.01,446.3c-11.36-1.05-21.04-5.31-29.07-12.72c-9.23-8.49-13.87-19.53-13.87-33.16s4.64-24.89,13.87-33.74
					c9.23-8.87,20.66-13.29,34.29-13.29h44.09v92.91H706.01z"/>
			</g>
		</g>
		<g>
			<g>
				<path class="st0" d="M856.81,624.12c16-20.56,34.49-54.2,34.79-82.57l0.02-1.15h-18.03l-0.02,1.11
					c-0.85,24.02-15.95,51.85-28.98,68.9l-3-3.39l-19.71-22.31l-45.18-51.13l-5.65-6.39c-3.64-4.47-5.51-9.8-5.51-15.86
					c0-9.71,4.56-17.52,11.16-22.8c6.25-5.05,14.34-7.81,22.13-7.81c9.04,0,16.78,2.81,23.05,8.35c0.58,0.48,1.13,1.01,1.66,1.54
					l16.64,18.56l1.41-1.24l12.54-11.11l-12.54-13.99l-4.29-4.77c-4.61-4.52-9.77-8.09-15.42-10.65c-7.03-3.2-14.8-4.86-23.05-4.86
					c-7.86,0-15.35,1.71-22.13,4.75c-7.77,3.5-14.57,8.76-19.71,15.19c-6.55,8.14-10.47,18.19-10.47,28.86c0,9.5,3,17.84,9.66,26.86
					c-28.79,14.62-45.92,37.23-45.92,60.7c0,30.84,21.32,53.21,46.73,62.56c6.39,2.37,13.05,3.92,19.71,4.56
					c1.98,0.21,3.99,0.32,5.97,0.35c13.62,0,26.46-3.6,39.21-11.13c6.57-3.87,13.09-8.81,19.71-14.8c0.9-0.83,1.8-1.66,2.7-2.51
					l25.13,28.45h24.85L856.81,624.12z M821.88,632.92c-13.12,10.58-25.52,15.33-39.05,15.24c-2.08-0.02-4.13-0.16-6.13-0.41
					c-7.08-0.83-13.74-2.93-19.71-6.04c-16.41-8.53-27.55-24.6-27.55-42.83c0-19.78,15.38-33.31,27.55-40.94
					c4.45-2.79,8.48-4.79,11.18-6.02l8.53,9.66l45.18,51.15l9.94,11.25C828.43,627.35,825.14,630.32,821.88,632.92z"/>
			</g>
		</g>
	</g>
</g>
</svg>
