<?xml version="1.0" encoding="UTF-8"?>
<svg width="32" height="32" viewBox="0 0 32 32" fill="none" xmlns="http://www.w3.org/2000/svg">
  <rect width="32" height="32" rx="8" fill="#6366F1"/>
  <path d="M8 4.93h3.68c1.98 0 3.17 1.1 3.17 2.8 0 1.04 0.55 1.86 1.46 2.26 1.16 0.34 1.89 1.25 1.89 2.5 0 1.83-1.31 3.02-3.35 3.02H8V4.93zm3.04 4.33c0.79 0 1.28 0.43 1.28 1.1 0 0.67-0.49 1.1-1.28 1.1H5.6v2.2h3.44zm0.32 4.52c0.91 0 1.46 0.49 1.46 1.22 0 0.73-0.55 1.22-1.46 1.22H5.6v2.44h3.76z" fill="white"/>
  <path d="M22.15 4.93h3.68c1.98 0 3.17 1.1 3.17 2.8 0 1.04 0.55 1.86 1.46 2.26 1.16 0.34 1.89 1.25 1.89 2.5 0 1.83-1.31 3.02-3.35 3.02h-3.85V4.93zm3.04 4.33c0.79 0 1.28 0.43 1.28 1.1 0 0.67-0.49 1.1-1.28 1.1h-3.44v2.2h3.44zm0.32 4.52c0.91 0 1.46 0.49 1.46 1.22 0 0.73-0.55 1.22-1.46 1.22h-3.76v2.44h3.76z" fill="white"/>
</svg> 